<svg width="64" height="20" viewBox="0 0 64 20" fill="none" xmlns="http://www.w3.org/2000/svg">
<path d="M17.9996 3.06114C17.9589 3.35847 17.9245 3.65893 17.8744 3.95314C17.5677 5.77783 16.7667 7.3584 15.4962 8.69797C15.249 8.95775 14.9893 9.20813 14.7358 9.46165C14.7264 9.47104 14.7108 9.48043 14.717 9.4773C13.3183 8.07826 11.9257 6.68236 10.502 5.26141C10.9494 4.84827 11.4032 4.38506 11.8976 3.98131C13.1336 2.97037 14.5574 2.36005 16.1314 2.10341C16.3974 2.05959 16.6665 2.03455 16.9325 2.00012C17.1735 2.00012 17.4113 2.00012 17.6522 2.00012C17.8118 2.06898 17.9276 2.18478 17.9964 2.3444C17.9996 2.58227 17.9996 2.82327 17.9996 3.06114Z" fill="#82CC27"/>
<path d="M6.32129 9.50237C7.48223 8.3412 8.65569 7.16752 9.81663 6.00635C11.206 7.39599 12.6016 8.7919 13.991 10.1815C12.8301 11.3427 11.6597 12.5133 10.4957 13.6776C9.1063 12.2879 7.71066 10.892 6.32129 9.50237Z" fill="#82CC27"/>
<path d="M4.97596 9.89987C5.2263 9.89674 5.44534 9.98438 5.62371 10.1597C7.02873 11.5649 8.43688 12.9671 9.83877 14.3755C10.2018 14.7417 10.2018 15.2895 9.85442 15.6713C9.75428 15.784 9.64476 15.8872 9.53524 15.9937C9.29742 16.2253 9.03143 16.2253 8.79674 15.9905C7.81729 15.014 6.84098 14.0344 5.86153 13.0547C5.25133 12.4444 4.64113 11.8341 4.03093 11.2238C3.77434 10.9671 3.77121 10.7105 4.0278 10.4507C4.13107 10.3474 4.2312 10.2442 4.3376 10.144C4.52222 9.97186 4.72562 9.89674 4.97596 9.89987Z" fill="#82CC27"/>
<path d="M6.87268 3.30847C7.12928 3.31473 7.27948 3.39611 7.36397 3.57138C7.45159 3.75291 7.42655 3.92818 7.30451 4.08154C7.24506 4.15353 7.17622 4.21612 7.1105 4.28185C6.44085 4.95164 5.7712 5.62142 5.10154 6.2912C4.96386 6.42892 4.80427 6.49777 4.60712 6.43831C4.42563 6.38197 4.31924 6.25991 4.27543 6.07838C4.23788 5.91875 4.28481 5.77478 4.39747 5.66211C5.13596 4.92034 5.87446 4.17857 6.61922 3.44618C6.69432 3.37107 6.81636 3.33664 6.87268 3.30847Z" fill="#82CC27"/>
<path d="M16.1604 12.5852C16.4264 12.6009 16.5735 12.6916 16.6517 12.8763C16.7331 13.0672 16.6924 13.2456 16.5516 13.3958C16.3044 13.6493 16.0509 13.8966 15.8037 14.147C15.3249 14.6259 14.8493 15.1047 14.3674 15.5805C14.2328 15.7119 14.0764 15.7745 13.8855 15.7182C13.704 15.665 13.5945 15.5429 13.5507 15.3614C13.51 15.1955 13.5632 15.0484 13.679 14.9326C14.4143 14.1939 15.1466 13.4584 15.8882 12.726C15.9696 12.6478 16.101 12.6134 16.1604 12.5852Z" fill="#82CC27"/>
<path d="M6.46875 6.36318C6.50004 6.30685 6.53446 6.17852 6.61582 6.09402C7.3418 5.35538 8.07717 4.62613 8.80941 3.89374C9.00655 3.69656 9.29131 3.69969 9.47906 3.88435C9.67307 4.07527 9.67307 4.35696 9.46655 4.56666C8.95022 5.08934 8.43077 5.60576 7.91132 6.12532C7.70166 6.33502 7.49514 6.54784 7.28235 6.75441C7.13215 6.90152 6.95065 6.94533 6.75038 6.8577C6.56889 6.77945 6.48127 6.62922 6.46875 6.36318Z" fill="#82CC27"/>
<path d="M13.5756 13.5555C13.2001 13.5242 12.981 13.1393 13.1625 12.8232C13.1907 12.7731 13.2282 12.7293 13.2689 12.6886C13.9824 11.975 14.6958 11.2582 15.4093 10.5478C15.6972 10.2598 16.1165 10.3537 16.226 10.7262C16.2761 10.8952 16.2354 11.0517 16.1134 11.1737C15.3717 11.9186 14.6301 12.6635 13.8822 13.4022C13.8071 13.4773 13.6788 13.5055 13.5756 13.5555Z" fill="#82CC27"/>
<path d="M4.2873 16.2346C4.04948 16.2158 3.89928 16.1344 3.81792 15.956C3.73656 15.7714 3.75533 15.5899 3.89302 15.449C4.2873 15.0421 4.68784 14.6415 5.09464 14.2472C5.27614 14.0719 5.55151 14.0938 5.72987 14.2628C5.90511 14.4349 5.9364 14.7166 5.76117 14.8982C5.36375 15.3144 4.9507 15.7213 4.53764 16.1219C4.46567 16.1877 4.34363 16.2096 4.2873 16.2346Z" fill="#82CC27"/>
<path d="M2.49116 15.3676C2.29089 15.3394 2.14695 15.2581 2.06246 15.0891C1.97171 14.9107 1.9811 14.7229 2.11566 14.5789C2.46926 14.2064 2.83225 13.8403 3.20463 13.4866C3.38612 13.3144 3.66775 13.3395 3.83986 13.5148C4.01509 13.6932 4.02761 13.978 3.84925 14.1626C3.5019 14.5226 3.1483 14.8762 2.78844 15.2205C2.71021 15.2956 2.5913 15.3207 2.49116 15.3676Z" fill="#82CC27"/>
<path d="M5.17691 17.9999C4.92657 17.9842 4.7795 17.8966 4.70127 17.7182C4.62617 17.5429 4.63555 17.3614 4.77011 17.2237C5.12371 16.8575 5.48357 16.4944 5.85282 16.1408C6.02493 15.9749 6.30343 15.9905 6.47867 16.1533C6.65703 16.3192 6.69458 16.604 6.52561 16.7855C6.16887 17.1642 5.7965 17.5304 5.42099 17.8903C5.34589 17.9592 5.22698 17.978 5.17691 17.9999Z" fill="#82CC27"/>
<path d="M2.5162 17.9998C2.27838 17.9873 2.1313 17.8997 2.04994 17.7244C1.96858 17.5491 1.98736 17.3707 2.11566 17.2267C2.2596 17.064 2.41606 16.9075 2.57878 16.7635C2.75402 16.607 3.01687 16.6164 3.19211 16.7698C3.36422 16.92 3.41741 17.1923 3.27034 17.377C3.11075 17.5742 2.923 17.7494 2.73211 17.9184C2.66953 17.9716 2.56314 17.981 2.5162 17.9998Z" fill="#82CC27"/>
<path d="M30.258 10.002C30.7807 10.0953 31.224 10.3707 31.588 10.828C31.952 11.2853 32.134 11.8033 32.134 12.382C32.134 12.8767 32.0033 13.3247 31.742 13.726C31.49 14.118 31.1213 14.4307 30.636 14.664C30.1507 14.888 29.586 15 28.942 15H25.05V5.27H28.76C29.4227 5.27 29.992 5.382 30.468 5.606C30.944 5.83 31.3033 6.13333 31.546 6.516C31.7887 6.88933 31.91 7.30933 31.91 7.776C31.91 8.336 31.7607 8.80267 31.462 9.176C31.1633 9.54933 30.762 9.82467 30.258 10.002ZM26.646 9.358H28.62C29.1427 9.358 29.5487 9.24133 29.838 9.008C30.1367 8.76533 30.286 8.42 30.286 7.972C30.286 7.53333 30.1367 7.19267 29.838 6.95C29.5487 6.698 29.1427 6.572 28.62 6.572H26.646V9.358ZM28.802 13.698C29.3433 13.698 29.768 13.5673 30.076 13.306C30.384 13.0447 30.538 12.6807 30.538 12.214C30.538 11.738 30.3747 11.36 30.048 11.08C29.7213 10.8 29.2873 10.66 28.746 10.66H26.646V13.698H28.802ZM40.8544 7.286V15H39.2584V14.09C39.0064 14.4073 38.675 14.6593 38.2644 14.846C37.863 15.0233 37.4337 15.112 36.9764 15.112C36.3697 15.112 35.8237 14.986 35.3384 14.734C34.8624 14.482 34.4844 14.1087 34.2044 13.614C33.9337 13.1193 33.7984 12.522 33.7984 11.822V7.286H35.3804V11.584C35.3804 12.2747 35.553 12.8067 35.8984 13.18C36.2437 13.544 36.715 13.726 37.3124 13.726C37.9097 13.726 38.381 13.544 38.7264 13.18C39.081 12.8067 39.2584 12.2747 39.2584 11.584V7.286H40.8544ZM44.5562 4.64V15H42.9602V4.64H44.5562ZM48.2476 4.64V15H46.6516V4.64H48.2476ZM57.413 10.954C57.413 11.2433 57.3943 11.5047 57.357 11.738H51.463C51.5096 12.354 51.7383 12.8487 52.149 13.222C52.5596 13.5953 53.0636 13.782 53.661 13.782C54.5196 13.782 55.1263 13.4227 55.481 12.704H57.203C56.9696 13.4133 56.545 13.9967 55.929 14.454C55.3223 14.902 54.5663 15.126 53.661 15.126C52.9236 15.126 52.261 14.9627 51.673 14.636C51.0943 14.3 50.637 13.8333 50.301 13.236C49.9743 12.6293 49.811 11.9293 49.811 11.136C49.811 10.3427 49.9696 9.64733 50.287 9.05C50.6136 8.44333 51.0663 7.97667 51.645 7.65C52.233 7.32333 52.905 7.16 53.661 7.16C54.389 7.16 55.0376 7.31867 55.607 7.636C56.1763 7.95333 56.6196 8.40133 56.937 8.98C57.2543 9.54933 57.413 10.2073 57.413 10.954ZM55.747 10.45C55.7376 9.862 55.5276 9.39067 55.117 9.036C54.7063 8.68133 54.1976 8.504 53.591 8.504C53.0403 8.504 52.569 8.68133 52.177 9.036C51.785 9.38133 51.5516 9.85267 51.477 10.45H55.747ZM60.8456 8.588V12.858C60.8456 13.1473 60.9109 13.3573 61.0416 13.488C61.1816 13.6093 61.4149 13.67 61.7416 13.67H62.7216V15H61.4616C60.7429 15 60.1923 14.832 59.8096 14.496C59.4269 14.16 59.2356 13.614 59.2356 12.858V8.588H58.3256V7.286H59.2356V5.368H60.8456V7.286H62.7216V8.588H60.8456Z" fill="#82CC27"/>
</svg>
