<svg width="24" height="24" viewBox="0 0 24 24" fill="none" xmlns="http://www.w3.org/2000/svg">
<path fill-rule="evenodd" clip-rule="evenodd" d="M14.6514 9.34869C14.9443 9.64158 14.9443 10.1165 14.6514 10.4093L10.4088 14.652C10.1159 14.9449 9.64102 14.9449 9.34812 14.652C9.05523 14.3591 9.05523 13.8842 9.34812 13.5913L13.5908 9.34869C13.8837 9.0558 14.3585 9.0558 14.6514 9.34869Z" fill="#A5A5AA"/>
<path fill-rule="evenodd" clip-rule="evenodd" d="M18.136 5.8638C16.588 4.31573 14.0781 4.31573 12.53 5.8638L10.8633 7.53047C10.5704 7.82337 10.0955 7.82337 9.80265 7.53047C9.50975 7.23758 9.50975 6.76271 9.80265 6.46981L11.4693 4.80314C13.6032 2.66928 17.0628 2.66928 19.1967 4.80314C21.3305 6.93699 21.3305 10.3967 19.1967 12.5305L17.53 14.1972C17.2371 14.4901 16.7622 14.4901 16.4694 14.1972C16.1765 13.9043 16.1765 13.4294 16.4694 13.1365L18.136 11.4698C19.6841 9.92178 19.6841 7.41186 18.136 5.8638Z" fill="#A5A5AA"/>
<path fill-rule="evenodd" clip-rule="evenodd" d="M5.86397 18.1362C7.41204 19.6843 9.92195 19.6843 11.47 18.1362L13.1367 16.4695C13.4296 16.1766 13.9045 16.1766 14.1974 16.4695C14.4902 16.7624 14.4902 17.2373 14.1974 17.5302L12.5307 19.1969C10.3968 21.3307 6.93716 21.3307 4.80331 19.1969C2.66945 17.063 2.66945 13.6033 4.80331 11.4695L6.46998 9.80282C6.76288 9.50993 7.23775 9.50993 7.53065 9.80282C7.82354 10.0957 7.82354 10.5706 7.53065 10.8635L5.86397 12.5302C4.3159 14.0782 4.3159 16.5881 5.86397 18.1362Z" fill="#A5A5AA"/>
</svg>
