<svg width="305" height="204" viewBox="0 0 305 204" fill="none" xmlns="http://www.w3.org/2000/svg">
<path d="M154.253 187.288C204.892 187.288 246.153 146.198 246.153 95.7294C245.983 45.0907 204.892 4 154.253 4C103.444 4 62.3535 45.0907 62.3535 95.5589C62.3535 146.198 103.444 187.288 154.253 187.288Z" fill="#17191B" stroke="#181A1D" stroke-width="2" stroke-miterlimit="10"/>
<path d="M251.608 107.323C251.608 126.93 235.752 142.787 215.974 142.787C215.633 142.787 212.734 142.787 191.421 142.787C176.588 142.787 152.888 142.787 115.037 142.787H96.9641C73.2645 143.298 54.3389 124.373 54.3389 101.526C54.3389 78.5082 73.435 59.4121 97.4756 60.6056C118.106 -3.84371 212.564 5.19283 220.577 71.8586C238.309 74.0751 251.608 89.0792 251.608 107.323Z" fill="#757778" stroke="#3A3E42" stroke-width="2" stroke-miterlimit="10"/>
<path d="M220.066 72.0304C218.702 71.8599 217.338 71.8599 215.974 71.8599C208.983 71.8599 202.334 73.9059 196.707 77.4864" fill="#252729"/>
<path d="M220.066 72.0304C218.702 71.8599 217.338 71.8599 215.974 71.8599C208.983 71.8599 202.334 73.9059 196.707 77.4864" stroke="#3A3E42" stroke-width="2" stroke-miterlimit="10" stroke-linecap="round"/>
<path d="M98 61C95.3333 67.075 94 73.4875 94 80.2375C94 82.9375 94.2222 85.4688 94.6667 88" fill="#75777C"/>
<path d="M98 61C95.3333 67.075 94 73.4875 94 80.2375C94 82.9375 94.2222 85.4688 94.6667 88" stroke="#3A3E42" stroke-width="2" stroke-miterlimit="10" stroke-linecap="round" stroke-linejoin="round"/>
<path d="M135.686 100.649C138.371 100.649 140.643 98.3771 140.643 95.6924C140.643 93.0076 138.371 90.7358 135.686 90.7358C133.001 90.7358 130.729 93.0076 130.729 95.6924C130.729 98.3771 133.001 100.649 135.686 100.649Z" fill="#111315"/>
<path d="M173.686 100.649C176.371 100.649 178.643 98.3771 178.643 95.6924C178.643 93.0076 176.371 90.7358 173.686 90.7358C171.001 90.7358 168.729 93.0076 168.729 95.6924C168.729 98.5837 171.001 100.649 173.686 100.649Z" fill="#111315"/>
<path d="M135.492 79.2951L124.589 85.1821L126.061 87.9079L136.964 82.0208L135.492 79.2951Z" fill="#111315"/>
<path d="M173.012 79.2158L171.54 81.9419L182.444 87.8277L183.916 85.1017L173.012 79.2158Z" fill="#111315"/>
<path d="M154.686 112.215C157.88 112.215 160.469 110.273 160.469 107.878C160.469 105.483 157.88 103.541 154.686 103.541C151.492 103.541 148.903 105.483 148.903 107.878C148.903 110.273 151.492 112.215 154.686 112.215Z" fill="#111315"/>
<path d="M33.1539 28.4854C33.1539 28.4854 9.32034 34.5366 16.5426 39.3776C23.7649 43.9766 40.8576 51.9642 56.9874 46.6391C73.1172 41.314 56.9874 33.8105 57.2281 33.8105C57.4689 33.8105 33.1539 28.4854 33.1539 28.4854Z" fill="#252729" stroke="#3A3E42" stroke-width="2" stroke-miterlimit="10"/>
<path d="M4.02344 26.5489C12.6902 29.2114 39.4126 24.8545 56.5054 13.7202C69.9869 30.4217 75.0425 34.7786 79.8574 35.2627C72.3944 42.7662 47.5979 54.8687 33.6348 39.1355C17.2643 49.5436 4.02344 26.5489 4.02344 26.5489Z" fill="#252729" stroke="#3A3E42" stroke-width="2" stroke-miterlimit="10"/>
<path d="M225.793 87.0709C234.941 87.555 259.738 76.4207 273.219 61.4136C290.553 74.2422 296.331 77.1468 301.386 76.4207C295.849 85.6186 278.997 105.709 255.164 107.161C237.83 96.9949 225.793 87.0709 225.793 87.0709Z" fill="#252729" stroke="#3A3E42" stroke-width="2" stroke-miterlimit="10"/>
<path d="M152.765 200.609C150.955 191.628 133.995 170.387 116.102 161.069C124.209 141.086 125.583 134.767 123.62 130.051C133.907 133.123 157.562 144.439 164.905 167.16C159.377 186.479 152.765 200.609 152.765 200.609Z" fill="#252729" stroke="#3A3E42" stroke-width="2" stroke-miterlimit="10"/>
</svg>
