<svg width="24" height="24" viewBox="0 0 24 24" fill="none" xmlns="http://www.w3.org/2000/svg">
<path fill-rule="evenodd" clip-rule="evenodd" d="M9.57823 9.13919C9.16803 8.78644 8.84547 8.33463 8.64765 7.82087C8.50593 7.45279 8.42825 7.05292 8.42825 6.6349C8.42825 4.81148 9.90642 3.33331 11.7298 3.33331C13.5533 3.33331 15.0314 4.81148 15.0314 6.6349C15.0314 7.09594 14.9369 7.53491 14.7662 7.9335C14.5824 8.36275 14.3102 8.74516 13.9726 9.05786L15.6505 10.2423V12.4127H14.0079C14.0614 13.0923 14.3733 13.7722 14.8276 14.4127C15.0458 14.7203 15.2968 15.0188 15.5678 15.3038C16.4543 16.2358 17.5208 16.9875 18.229 17.3922L18.333 17.4517V20.6666H5.33301V17.4517L5.43698 17.3922C6.14524 16.9875 7.21173 16.2358 8.09817 15.3038C8.3692 15.0188 8.62026 14.7203 8.83846 14.4127C9.29273 13.7722 9.60464 13.0923 9.65815 12.4127H8.01555V10.2423L9.57823 9.13919Z" stroke="#9DA1A3" stroke-width="1.5" stroke-linecap="round" stroke-linejoin="round"/>
</svg>
